
<svg width: "150px">
    <path xmlns="http://www.w3.org/2000/svg" style="fill:#ffffff;fill-rule:nonzero;stroke:#ff0000;stroke-width:1.28644881;stroke-miterlimit:4;stroke-dasharray:none" d="m 177.50319,250.02759 c 0,3.85241 -3.10901,7.01109 -6.92147,7.01109 H 16.590573 c -3.803119,0 -6.9121236,-3.15868 -6.9121236,-7.01109 V 16.881484 c 0,-3.857394 3.1090046,-7.0120851 6.9121236,-7.0120851 H 170.58172 c 3.81246,0 6.92147,3.1546911 6.92147,7.0120851 z" id="path5-6"/>
    <path xmlns="http://www.w3.org/2000/svg" style="fill:#fb0f0c;fill-rule:evenodd;stroke:#ff0000;stroke-width:0.0268082;stroke-miterlimit:10" d="m 37.267911,42.899959 c 34.739679,0 69.479849,0 104.219039,0 0.81858,0 8.69242,-0.379759 8.69242,0.30002 0,3.814534 0,7.628571 0,11.443106 0,18.934623 0,37.869248 0,56.803875 0,36.74343 0,73.48735 0,110.23128 0,0.26114 0.17512,1.45325 -0.14364,1.45325 -1.55746,0 -3.11393,0 -4.67039,0 -8.0844,0 -16.16782,0 -24.25122,0 -21.936194,0 -43.8714,0 -65.807098,0 -5.785109,0 -11.570218,0 -17.354835,0 -1.47235,0 -0.684276,-4.14645 -0.684276,-5.33257 0,-16.53797 0,-33.07592 0,-49.61388 0,-39.89562 0,-79.79075 0,-119.686377 0,-1.8664 0,-3.732303 0,-5.598704" id="path7-2"/>
</svg>